<svg xmlns="http://www.w3.org/2000/svg" xmlns:xlink="http://www.w3.org/1999/xlink" version="1.1" x="0px" y="0px" viewBox="0 0 100 125" enable-background="new 0 0 100 100" xml:space="preserve"><g><g><path d="M50,5.204C25.3,5.204,5.205,25.3,5.205,50C5.205,74.701,25.3,94.796,50,94.796c24.7,0,44.795-20.095,44.795-44.796    C94.795,25.3,74.701,5.204,50,5.204z M50,92.857C26.331,92.857,7.143,73.669,7.143,50S26.331,7.143,50,7.143    S92.857,26.331,92.857,50S73.669,92.857,50,92.857z"/><path d="M50,8.112C26.903,8.112,8.112,26.903,8.112,50S26.903,91.888,50,91.888S91.888,73.097,91.888,50S73.097,8.112,50,8.112z     M45.814,86.134c-18.385-2.16-32.248-17.768-32.248-36.307c0-2.269,0.21-4.542,0.623-6.754l2.066,0.386    c-0.39,2.085-0.587,4.228-0.587,6.368c0,17.473,13.066,32.184,30.392,34.22L45.814,86.134z M55.887,86.033l-1.033,0.168    l-1.162-6.937c-1.301,0.173-2.622,0.261-3.939,0.261c-7.502,0-14.652-2.818-20.133-7.934l1.434-1.536    c5.091,4.752,11.732,7.368,18.699,7.368c1.553,0,3.11-0.131,4.628-0.389l1.039-0.176l1.158,6.917    c4.403-0.854,8.539-2.539,12.31-5.017l1.154,1.756C65.731,83.348,60.968,85.205,55.887,86.033z M78.727,72.548l-1.65-1.301    c0.68-0.862,1.315-1.752,1.905-2.666l-4.36-2.67c-2.563,4-6.069,7.345-10.194,9.713l-0.871,0.5l-3.37-5.297    c-3.082,1.514-6.515,2.342-10.071,2.342c-0.779,0-1.565-0.04-2.335-0.118l0.213-2.091c0.7,0.071,1.414,0.107,2.122,0.107    c7.249,0,13.943-3.778,17.706-9.926l-6.156-3.706l0.461-0.878c1.023-1.946,1.563-4.145,1.563-6.359    c0-2.863-0.902-5.655-2.557-7.968l-4.276,3.536c0.912,1.328,1.447,2.935,1.447,4.664c0,4.557-3.707,8.264-8.264,8.264    c-2.149,0-4.185-0.821-5.732-2.311l1.458-1.514c1.154,1.111,2.672,1.723,4.274,1.723c3.398,0,6.163-2.765,6.163-6.163    c0-3.398-2.765-6.163-6.163-6.163c-2.168,0-4.137,1.107-5.267,2.961l-0.224,0.367l-0.698,0.174l-7.498,1.342    c-0.028,0.359-0.043,0.721-0.043,1.087c0,7.549,6.141,13.69,13.69,13.69c1.849,0,3.641-0.362,5.328-1.075l0.819,1.935    c-1.947,0.824-4.016,1.241-6.147,1.241c-3.697,0-7.101-1.277-9.794-3.413l-4.979,5.105l-0.752-0.706    c-2.251-2.115-4.023-4.614-5.267-7.427c-0.942-2.132-1.543-4.367-1.798-6.671l-6.983,0.631l-0.086-1.056    c-0.066-0.806-0.099-1.627-0.099-2.439c0-5.091,1.305-9.967,3.658-14.241l-6.285-3.515l0.546-0.926    c3.183-5.399,7.727-9.923,13.139-13.084c5.578-3.257,11.959-4.978,18.454-4.978c2.262,0,4.527,0.208,6.733,0.617l-0.384,2.066    c-2.08-0.386-4.216-0.582-6.35-0.582c-6.123,0-12.138,1.622-17.395,4.692c-4.793,2.799-8.864,6.732-11.828,11.418l4.447,2.487    c3.108-4.8,7.607-8.697,13.09-11.063l0.833,1.93c-10.059,4.342-16.558,14.225-16.558,25.179c0,0.402,0.009,0.806,0.026,1.21    l4.905-0.443c-0.003-0.153-0.006-0.306-0.006-0.459c0-2.432,0.38-4.827,1.131-7.118l1.997,0.654    c-0.681,2.079-1.026,4.254-1.026,6.464c0,5.443,2.055,10.517,5.81,14.4l3.469-3.556c-2.747-2.843-4.439-6.71-4.439-10.965    c0-4.667,2.036-8.867,5.265-11.761l-4.769-5.023l0.868-0.717c4.079-3.37,9.244-5.226,14.544-5.226    c10.657,0,19.855,7.355,22.25,17.631l4.231-0.67c-1.069-5.194-3.626-9.967-7.462-13.802c-5.177-5.177-12.061-8.029-19.382-8.029    V20.5c4.398,0,8.649,0.957,12.516,2.77l3.591-6.466l0.904,0.463c8.941,4.579,15.672,12.719,18.468,22.335l-2.018,0.587    c-2.541-8.738-8.53-16.184-16.511-20.575l-2.564,4.617c2.347,1.314,4.528,2.959,6.482,4.914    c5.574,5.574,8.644,12.985,8.644,20.868h-2.102c0-1.182-0.075-2.353-0.222-3.507l-6.244,0.989l-0.187-1.005    c-1.829-9.802-10.406-16.917-20.394-16.917c-4.435,0-8.765,1.431-12.316,4.05l3.335,3.513c2.529-1.722,5.581-2.729,8.864-2.729    c0.448,0,0.9,0.019,1.344,0.056l-0.176,2.094c-0.386-0.033-0.778-0.049-1.167-0.049c-6.416,0-11.815,4.437-13.29,10.404    l6.521-1.167c1.545-2.25,4.057-3.579,6.809-3.579c2.071,0,3.965,0.768,5.417,2.031l5.976-4.942l0.67,0.799    c2.378,2.835,3.688,6.437,3.688,10.143c0,2.22-0.472,4.428-1.37,6.442l6.234,3.753l-0.484,0.885    c-1.957,3.574-4.786,6.485-8.138,8.534l2.21,3.473c3.74-2.334,6.883-5.551,9.129-9.353l0.543-0.919l6.152,3.768    c2.377-4.225,3.837-8.908,4.273-13.784l2.093,0.187C85.801,60.262,83.136,66.958,78.727,72.548z M49.413,49.99    c0-1.06,0.86-1.92,1.92-1.92c1.06,0,1.92,0.86,1.92,1.92c0,1.06-0.86,1.92-1.92,1.92C50.272,51.91,49.413,51.051,49.413,49.99z"/></g></g><g display="none"><g display="inline"><g><path stroke="#000000" stroke-width="2" stroke-miterlimit="10" d="M92.281,54.015c-0.537,6.004-2.335,11.77-5.261,16.972     l-7.575-4.639l-0.669,1.132c-2.765,4.682-6.635,8.642-11.24,11.516l-2.721-4.276c4.127-2.523,7.61-6.107,10.019-10.508     l0.596-1.089l-7.675-4.62c1.107-2.481,1.687-5.199,1.687-7.932c0-4.563-1.613-8.998-4.541-12.489l-0.826-0.984l-7.358,6.085     c-1.788-1.556-4.12-2.501-6.67-2.501c-3.388,0-6.481,1.637-8.384,4.406l-8.029,1.437c1.817-7.347,8.464-12.81,16.363-12.81     c0.479,0,0.962,0.02,1.437,0.06l0.217-2.578c-0.547-0.046-1.103-0.069-1.655-0.069c-4.042,0-7.8,1.241-10.914,3.36l-4.107-4.325     c4.371-3.224,9.703-4.986,15.163-4.986c12.298,0,22.858,8.76,25.11,20.828l0.231,1.237l7.688-1.217     c0.18,1.421,0.273,2.862,0.273,4.318h2.587c0-9.706-3.78-18.831-10.643-25.694c-2.406-2.406-5.091-4.431-7.981-6.05l3.157-5.684     c9.826,5.406,17.201,14.573,20.329,25.332l2.485-0.722c-3.442-11.839-11.73-21.862-22.738-27.499l-1.113-0.57l-4.421,7.96     c-4.762-2.232-9.995-3.41-15.411-3.41v2.587c9.015,0,17.49,3.511,23.864,9.885c4.723,4.723,7.872,10.6,9.187,16.994l-5.209,0.825     C74.59,31.644,63.265,22.588,50.144,22.588c-6.525,0-12.884,2.285-17.906,6.434l-1.069,0.883l5.872,6.185     c-3.976,3.563-6.483,8.734-6.483,14.48c0,5.24,2.084,10.001,5.466,13.501l-4.271,4.379C27.131,63.669,24.6,57.421,24.6,50.72     c0-2.721,0.425-5.399,1.264-7.959l-2.459-0.805c-0.924,2.82-1.392,5.769-1.392,8.764c0,0.189,0.004,0.377,0.007,0.566     l-6.04,0.545c-0.022-0.497-0.032-0.994-0.032-1.489c0-13.487,8.002-25.655,20.387-31.001l-1.025-2.376     c-6.75,2.914-12.29,7.711-16.116,13.621l-5.476-3.062c3.649-5.769,8.661-10.613,14.563-14.059     c6.472-3.779,13.878-5.776,21.417-5.776c2.627,0,5.257,0.241,7.818,0.717l0.472-2.544c-2.716-0.504-5.505-0.76-8.29-0.76     c-7.997,0-15.854,2.12-22.721,6.129c-6.664,3.891-12.258,9.461-16.177,16.109l-0.672,1.14l7.739,4.328     c-2.897,5.262-4.504,11.265-4.504,17.533c0,1,0.041,2.01,0.122,3.003l0.106,1.3l8.598-0.776c0.314,2.836,1.054,5.588,2.214,8.213     c1.531,3.464,3.713,6.541,6.484,9.145l0.925,0.869l6.131-6.286c3.317,2.63,7.507,4.203,12.059,4.203     c2.624,0,5.171-0.514,7.568-1.529l-1.008-2.383c-2.077,0.879-4.284,1.324-6.56,1.324c-9.294,0-16.855-7.561-16.855-16.855     c0-0.45,0.018-0.897,0.053-1.338l9.231-1.652l0.86-0.214l0.275-0.452c1.391-2.283,3.815-3.646,6.485-3.646     c4.184,0,7.588,3.404,7.588,7.588s-3.404,7.588-7.588,7.588c-1.973,0-3.842-0.754-5.263-2.122l-1.795,1.864     c1.905,1.835,4.412,2.845,7.058,2.845c5.611,0,10.175-4.565,10.175-10.175c0-2.129-0.659-4.107-1.781-5.743l5.264-4.354     c2.038,2.847,3.148,6.285,3.148,9.81c0,2.726-0.666,5.434-1.925,7.829l-0.568,1.081l7.58,4.563     c-4.632,7.57-12.874,12.222-21.8,12.222c-0.872,0-1.751-0.044-2.613-0.132l-0.262,2.574c0.949,0.096,1.916,0.145,2.875,0.145     c4.378,0,8.605-1.02,12.4-2.884l4.149,6.521l1.072-0.616c5.079-2.916,9.395-7.034,12.551-11.959l5.368,3.288     c-0.727,1.126-1.509,2.222-2.346,3.283l2.032,1.602c5.429-6.883,8.71-15.127,9.489-23.842L92.281,54.015z"/><path stroke="#000000" stroke-width="2" stroke-miterlimit="10" d="M58.1,91.911l-1.426-8.517l-1.279,0.217     c-1.869,0.318-3.787,0.479-5.698,0.479c-8.579,0-16.755-3.222-23.023-9.072l-1.765,1.892c6.749,6.299,15.552,9.768,24.788,9.768     c1.622,0,3.248-0.108,4.85-0.321l1.43,8.541l1.271-0.207c6.256-1.02,12.12-3.306,17.429-6.795l-1.421-2.162     C68.613,88.785,63.52,90.86,58.1,91.911z"/><path stroke="#000000" stroke-width="2" stroke-miterlimit="10" d="M7.729,50.113c0-2.635,0.243-5.273,0.723-7.84l-2.543-0.475     c-0.509,2.724-0.767,5.521-0.767,8.316c0,22.825,17.069,42.043,39.705,44.702l0.302-2.57     C23.816,89.739,7.729,71.626,7.729,50.113z"/></g><circle stroke="#000000" stroke-width="2" stroke-miterlimit="10" cx="53.373" cy="52.063" r="2.141"/></g></g>

</svg>